<mxfile host="app.diagrams.net" agent="Mozilla/5.0 (Windows NT 10.0; Win64; x64) AppleWebKit/537.36 (KHTML, like Gecko) Chrome/129.0.0.0 Safari/537.36" version="24.7.16">
  <diagram name="Trang-1" id="WfS7PMg0TOXuMo9fOOjH">
    <mxGraphModel grid="0" page="0" gridSize="10" guides="1" tooltips="1" connect="1" arrows="1" fold="1" pageScale="1" pageWidth="827" pageHeight="583" background="#ffffff" math="0" shadow="0">
      <root>
        <mxCell id="0" />
        <mxCell id="1" parent="0" />
        <mxCell id="xQR9jPTIwqUP7xr8uC3n-2" value="" style="rounded=0;whiteSpace=wrap;html=1;labelBackgroundColor=none;" vertex="1" parent="1">
          <mxGeometry x="230" y="-169" width="1255" height="921" as="geometry" />
        </mxCell>
        <mxCell id="xQR9jPTIwqUP7xr8uC3n-4" value="" style="ellipse;whiteSpace=wrap;html=1;aspect=fixed;labelBackgroundColor=none;" vertex="1" parent="1">
          <mxGeometry x="80" y="255" width="40" height="40" as="geometry" />
        </mxCell>
        <mxCell id="xQR9jPTIwqUP7xr8uC3n-5" value="" style="endArrow=none;html=1;rounded=0;entryX=0.5;entryY=1;entryDx=0;entryDy=0;labelBackgroundColor=none;fontColor=default;" edge="1" parent="1" target="xQR9jPTIwqUP7xr8uC3n-4">
          <mxGeometry width="50" height="50" relative="1" as="geometry">
            <mxPoint x="100" y="365" as="sourcePoint" />
            <mxPoint x="570" y="315" as="targetPoint" />
          </mxGeometry>
        </mxCell>
        <mxCell id="xQR9jPTIwqUP7xr8uC3n-6" value="" style="endArrow=none;html=1;rounded=0;labelBackgroundColor=none;fontColor=default;" edge="1" parent="1">
          <mxGeometry width="50" height="50" relative="1" as="geometry">
            <mxPoint x="60" y="307" as="sourcePoint" />
            <mxPoint x="140" y="307" as="targetPoint" />
          </mxGeometry>
        </mxCell>
        <mxCell id="xQR9jPTIwqUP7xr8uC3n-8" value="" style="endArrow=none;html=1;rounded=0;labelBackgroundColor=none;fontColor=default;" edge="1" parent="1">
          <mxGeometry width="50" height="50" relative="1" as="geometry">
            <mxPoint x="100" y="365" as="sourcePoint" />
            <mxPoint x="60" y="425" as="targetPoint" />
          </mxGeometry>
        </mxCell>
        <mxCell id="xQR9jPTIwqUP7xr8uC3n-9" value="" style="endArrow=none;html=1;rounded=0;labelBackgroundColor=none;fontColor=default;" edge="1" parent="1">
          <mxGeometry width="50" height="50" relative="1" as="geometry">
            <mxPoint x="100" y="365" as="sourcePoint" />
            <mxPoint x="140" y="425" as="targetPoint" />
          </mxGeometry>
        </mxCell>
        <mxCell id="xQR9jPTIwqUP7xr8uC3n-10" value="&lt;font style=&quot;font-size: 18px;&quot;&gt;SPSO&lt;/font&gt;" style="text;html=1;align=center;verticalAlign=middle;whiteSpace=wrap;rounded=0;labelBackgroundColor=none;" vertex="1" parent="1">
          <mxGeometry x="70" y="435" width="60" height="30" as="geometry" />
        </mxCell>
        <mxCell id="xQR9jPTIwqUP7xr8uC3n-11" value="&lt;font style=&quot;font-size: 18px;&quot;&gt;Add/Remove printer&lt;/font&gt;" style="ellipse;whiteSpace=wrap;html=1;labelBackgroundColor=none;" vertex="1" parent="1">
          <mxGeometry x="307" y="87" width="214" height="60" as="geometry" />
        </mxCell>
        <mxCell id="xQR9jPTIwqUP7xr8uC3n-13" value="&lt;font style=&quot;font-size: 18px;&quot;&gt;Enable/Disable printer&lt;/font&gt;" style="ellipse;whiteSpace=wrap;html=1;labelBackgroundColor=none;" vertex="1" parent="1">
          <mxGeometry x="694" y="527" width="225" height="70" as="geometry" />
        </mxCell>
        <mxCell id="xQR9jPTIwqUP7xr8uC3n-17" value="&lt;font style=&quot;font-size: 18px;&quot;&gt;Update printer information&lt;/font&gt;" style="ellipse;whiteSpace=wrap;html=1;labelBackgroundColor=none;" vertex="1" parent="1">
          <mxGeometry x="675" y="126" width="250" height="80" as="geometry" />
        </mxCell>
        <mxCell id="xQR9jPTIwqUP7xr8uC3n-20" value="&lt;font style=&quot;font-size: 18px;&quot;&gt;Display printers inforamtion&lt;/font&gt;" style="ellipse;whiteSpace=wrap;html=1;labelBackgroundColor=none;" vertex="1" parent="1">
          <mxGeometry x="935" y="295" width="300" height="88" as="geometry" />
        </mxCell>
        <mxCell id="xQR9jPTIwqUP7xr8uC3n-21" value="&lt;font style=&quot;font-size: 18px;&quot;&gt;Manage Printers&lt;/font&gt;" style="ellipse;whiteSpace=wrap;html=1;labelBackgroundColor=none;" vertex="1" parent="1">
          <mxGeometry x="309" y="300" width="210" height="78" as="geometry" />
        </mxCell>
        <mxCell id="xQR9jPTIwqUP7xr8uC3n-22" value="" style="endArrow=none;html=1;rounded=0;labelBackgroundColor=none;fontColor=default;" edge="1" parent="1" target="xQR9jPTIwqUP7xr8uC3n-21">
          <mxGeometry width="50" height="50" relative="1" as="geometry">
            <mxPoint x="140" y="340" as="sourcePoint" />
            <mxPoint x="570" y="330" as="targetPoint" />
          </mxGeometry>
        </mxCell>
        <mxCell id="xQR9jPTIwqUP7xr8uC3n-23" value="&lt;font style=&quot;font-size: 31px;&quot;&gt;Printer Management&lt;/font&gt;" style="text;strokeColor=none;fillColor=none;align=left;verticalAlign=middle;spacingLeft=4;spacingRight=4;overflow=hidden;points=[[0,0.5],[1,0.5]];portConstraint=eastwest;rotatable=0;whiteSpace=wrap;html=1;labelBackgroundColor=none;" vertex="1" parent="1">
          <mxGeometry x="730" y="-152" width="320" height="50" as="geometry" />
        </mxCell>
        <mxCell id="xQR9jPTIwqUP7xr8uC3n-26" value="" style="endArrow=open;html=1;rounded=0;exitX=0;exitY=0.5;exitDx=0;exitDy=0;dashed=1;endFill=0;endSize=9;labelBackgroundColor=none;fontColor=default;" edge="1" parent="1" source="xQR9jPTIwqUP7xr8uC3n-20" target="xQR9jPTIwqUP7xr8uC3n-21">
          <mxGeometry width="50" height="50" relative="1" as="geometry">
            <mxPoint x="750" y="342" as="sourcePoint" />
            <mxPoint x="520" y="300" as="targetPoint" />
            <Array as="points">
              <mxPoint x="660" y="339" />
            </Array>
          </mxGeometry>
        </mxCell>
        <mxCell id="xQR9jPTIwqUP7xr8uC3n-40" value="" style="endArrow=none;html=1;rounded=0;exitX=0.769;exitY=0.081;exitDx=0;exitDy=0;exitPerimeter=0;dashed=1;startArrow=open;startFill=0;startSize=9;labelBackgroundColor=none;fontColor=default;entryX=0.097;entryY=0.757;entryDx=0;entryDy=0;entryPerimeter=0;" edge="1" parent="1" source="xQR9jPTIwqUP7xr8uC3n-21" target="xQR9jPTIwqUP7xr8uC3n-17">
          <mxGeometry width="50" height="50" relative="1" as="geometry">
            <mxPoint x="930" y="190" as="sourcePoint" />
            <mxPoint x="980" y="140" as="targetPoint" />
          </mxGeometry>
        </mxCell>
        <mxCell id="xQR9jPTIwqUP7xr8uC3n-41" value="" style="endArrow=none;html=1;rounded=0;exitX=0.5;exitY=0;exitDx=0;exitDy=0;dashed=1;startArrow=open;startFill=0;startSize=9;labelBackgroundColor=none;fontColor=default;" edge="1" parent="1" source="xQR9jPTIwqUP7xr8uC3n-21" target="xQR9jPTIwqUP7xr8uC3n-11">
          <mxGeometry width="50" height="50" relative="1" as="geometry">
            <mxPoint x="339.51" y="276" as="sourcePoint" />
            <mxPoint x="591.51" y="130" as="targetPoint" />
          </mxGeometry>
        </mxCell>
        <mxCell id="xQR9jPTIwqUP7xr8uC3n-47" value="" style="endArrow=none;html=1;rounded=0;exitX=0.684;exitY=0.967;exitDx=0;exitDy=0;entryX=0.253;entryY=0.052;entryDx=0;entryDy=0;dashed=1;startArrow=open;startFill=0;startSize=9;entryPerimeter=0;exitPerimeter=0;labelBackgroundColor=none;fontColor=default;" edge="1" parent="1" source="xQR9jPTIwqUP7xr8uC3n-21" target="xQR9jPTIwqUP7xr8uC3n-13">
          <mxGeometry width="50" height="50" relative="1" as="geometry">
            <mxPoint x="453" y="459.6" as="sourcePoint" />
            <mxPoint x="700" y="528.6" as="targetPoint" />
          </mxGeometry>
        </mxCell>
        <mxCell id="xQR9jPTIwqUP7xr8uC3n-62" value="&lt;font style=&quot;font-size: 18px;&quot;&gt;&amp;lt;&amp;lt;extend&amp;gt;&amp;gt;&lt;/font&gt;" style="text;html=1;align=center;verticalAlign=middle;whiteSpace=wrap;rounded=0;labelBackgroundColor=none;" vertex="1" parent="1">
          <mxGeometry x="603" y="421" width="60" height="30" as="geometry" />
        </mxCell>
        <mxCell id="xQR9jPTIwqUP7xr8uC3n-68" value="&lt;font style=&quot;font-size: 18px;&quot;&gt;&amp;lt;&amp;lt;extend&amp;gt;&amp;gt;&lt;/font&gt;" style="text;html=1;align=center;verticalAlign=middle;whiteSpace=wrap;rounded=0;labelBackgroundColor=none;" vertex="1" parent="1">
          <mxGeometry x="331" y="196" width="60" height="30" as="geometry" />
        </mxCell>
        <mxCell id="xQR9jPTIwqUP7xr8uC3n-82" value="&lt;font style=&quot;font-size: 18px;&quot;&gt;&amp;lt;&amp;lt;extend&amp;gt;&amp;gt;&lt;/font&gt;" style="text;html=1;align=center;verticalAlign=middle;whiteSpace=wrap;rounded=0;labelBackgroundColor=none;" vertex="1" parent="1">
          <mxGeometry x="670" y="310" width="60" height="30" as="geometry" />
        </mxCell>
        <mxCell id="xQR9jPTIwqUP7xr8uC3n-84" value="&lt;font style=&quot;font-size: 18px;&quot;&gt;Update printer driver&lt;/font&gt;" style="ellipse;whiteSpace=wrap;html=1;labelBackgroundColor=none;" vertex="1" parent="1">
          <mxGeometry x="1113" y="126" width="250" height="80" as="geometry" />
        </mxCell>
        <mxCell id="xQR9jPTIwqUP7xr8uC3n-85" value="&lt;font style=&quot;font-size: 18px;&quot;&gt;&amp;lt;&amp;lt;extend&amp;gt;&amp;gt;&lt;/font&gt;" style="text;html=1;align=center;verticalAlign=middle;whiteSpace=wrap;rounded=0;labelBackgroundColor=none;" vertex="1" parent="1">
          <mxGeometry x="545" y="203" width="60" height="30" as="geometry" />
        </mxCell>
        <mxCell id="xQR9jPTIwqUP7xr8uC3n-86" value="" style="endArrow=none;dashed=1;html=1;strokeWidth=1;rounded=0;exitX=1;exitY=0.5;exitDx=0;exitDy=0;startArrow=open;startFill=0;endSize=6;startSize=9;labelBackgroundColor=none;fontColor=default;entryX=0;entryY=0.5;entryDx=0;entryDy=0;" edge="1" parent="1" source="xQR9jPTIwqUP7xr8uC3n-17" target="xQR9jPTIwqUP7xr8uC3n-84">
          <mxGeometry width="50" height="50" relative="1" as="geometry">
            <mxPoint x="980" y="230" as="sourcePoint" />
            <mxPoint x="1060" y="170" as="targetPoint" />
          </mxGeometry>
        </mxCell>
        <mxCell id="xQR9jPTIwqUP7xr8uC3n-87" value="&lt;font style=&quot;font-size: 18px;&quot;&gt;&amp;lt;&amp;lt;extend&amp;gt;&amp;gt;&lt;/font&gt;" style="text;html=1;align=center;verticalAlign=middle;whiteSpace=wrap;rounded=0;labelBackgroundColor=none;" vertex="1" parent="1">
          <mxGeometry x="1000" y="137" width="60" height="30" as="geometry" />
        </mxCell>
        <mxCell id="mGqaBIzaLethgHBW2NbT-7" value="&lt;font style=&quot;font-size: 18px;&quot;&gt;Change printer configuration&lt;/font&gt;" style="ellipse;whiteSpace=wrap;html=1;labelBackgroundColor=none;" vertex="1" parent="1">
          <mxGeometry x="1075" y="-23" width="250" height="80" as="geometry" />
        </mxCell>
        <mxCell id="mGqaBIzaLethgHBW2NbT-8" value="" style="endArrow=none;dashed=1;html=1;strokeWidth=1;rounded=0;exitX=0.733;exitY=0.067;exitDx=0;exitDy=0;startArrow=open;startFill=0;endSize=6;startSize=9;labelBackgroundColor=none;fontColor=default;entryX=0.037;entryY=0.713;entryDx=0;entryDy=0;exitPerimeter=0;entryPerimeter=0;" edge="1" parent="1" source="xQR9jPTIwqUP7xr8uC3n-17" target="mGqaBIzaLethgHBW2NbT-7">
          <mxGeometry width="50" height="50" relative="1" as="geometry">
            <mxPoint x="871" y="20" as="sourcePoint" />
            <mxPoint x="1071" y="20" as="targetPoint" />
          </mxGeometry>
        </mxCell>
        <mxCell id="mGqaBIzaLethgHBW2NbT-9" value="&lt;font style=&quot;font-size: 18px;&quot;&gt;&amp;lt;&amp;lt;extend&amp;gt;&amp;gt;&lt;/font&gt;" style="text;html=1;align=center;verticalAlign=middle;whiteSpace=wrap;rounded=0;labelBackgroundColor=none;" vertex="1" parent="1">
          <mxGeometry x="915" y="32" width="60" height="30" as="geometry" />
        </mxCell>
        <mxCell id="mGqaBIzaLethgHBW2NbT-13" value="&lt;font style=&quot;font-size: 18px;&quot;&gt;View logs&lt;/font&gt;" style="ellipse;whiteSpace=wrap;html=1;labelBackgroundColor=none;" vertex="1" parent="1">
          <mxGeometry x="429" y="630" width="121" height="70" as="geometry" />
        </mxCell>
        <mxCell id="mGqaBIzaLethgHBW2NbT-14" value="" style="endArrow=none;html=1;rounded=0;entryX=0.5;entryY=0;entryDx=0;entryDy=0;dashed=1;startArrow=open;startFill=0;startSize=9;labelBackgroundColor=none;fontColor=default;exitX=0.433;exitY=0.99;exitDx=0;exitDy=0;exitPerimeter=0;" edge="1" parent="1" source="xQR9jPTIwqUP7xr8uC3n-21" target="mGqaBIzaLethgHBW2NbT-13">
          <mxGeometry width="50" height="50" relative="1" as="geometry">
            <mxPoint x="282.9999999999996" y="390.9959999999999" as="sourcePoint" />
            <mxPoint x="477.08" y="636.39" as="targetPoint" />
          </mxGeometry>
        </mxCell>
        <mxCell id="mGqaBIzaLethgHBW2NbT-15" value="&lt;font style=&quot;font-size: 18px;&quot;&gt;&amp;lt;&amp;lt;extend&amp;gt;&amp;gt;&lt;/font&gt;" style="text;html=1;align=center;verticalAlign=middle;whiteSpace=wrap;rounded=0;labelBackgroundColor=none;" vertex="1" parent="1">
          <mxGeometry x="349" y="502.99999999999994" width="60" height="30" as="geometry" />
        </mxCell>
        <mxCell id="mGqaBIzaLethgHBW2NbT-16" value="" style="endArrow=none;dashed=1;html=1;strokeWidth=1;rounded=0;exitX=0.236;exitY=0.081;exitDx=0;exitDy=0;startArrow=open;startFill=0;endSize=6;startSize=9;labelBackgroundColor=none;fontColor=default;entryX=0.696;entryY=0.936;entryDx=0;entryDy=0;exitPerimeter=0;entryPerimeter=0;" edge="1" parent="1" source="xQR9jPTIwqUP7xr8uC3n-20" target="xQR9jPTIwqUP7xr8uC3n-17">
          <mxGeometry width="50" height="50" relative="1" as="geometry">
            <mxPoint x="868" y="141" as="sourcePoint" />
            <mxPoint x="1094" y="44" as="targetPoint" />
          </mxGeometry>
        </mxCell>
        <mxCell id="mGqaBIzaLethgHBW2NbT-17" value="&lt;font style=&quot;font-size: 18px;&quot;&gt;&amp;lt;&amp;lt;extend&amp;gt;&amp;gt;&lt;/font&gt;" style="text;html=1;align=center;verticalAlign=middle;whiteSpace=wrap;rounded=0;labelBackgroundColor=none;" vertex="1" parent="1">
          <mxGeometry x="935" y="217" width="60" height="30" as="geometry" />
        </mxCell>
      </root>
    </mxGraphModel>
  </diagram>
</mxfile>
